<svg width="130" height="71" viewBox="0 0 130 71" fill="none" xmlns="http://www.w3.org/2000/svg">
<path fill-rule="evenodd" clip-rule="evenodd" d="M89.9556 56.1194C97.7013 54.7856 105.437 53.3982 113.182 52.0615C114.726 51.7952 115.851 50.4811 115.851 48.9457V35.0362C115.851 34.8603 115.975 34.7126 116.151 34.6786L117.043 34.5061C125.591 32.8526 130 26.9145 130 18.5128V12.6707C130 5.54558 126.673 0 118.805 0C117.688 0 116.569 0.116591 115.469 0.305721L104.363 2.21581C104.219 2.24055 104.077 2.27399 103.938 2.31747L103.795 2.36204C103.762 2.37253 103.732 2.37767 103.697 2.37899L103.547 2.38476C103.402 2.39035 103.257 2.40667 103.113 2.43129L95.8414 3.68047C94.8262 3.85484 93.9619 4.49136 93.5031 5.39491L92.8286 6.72326C92.774 6.8308 92.6791 6.89999 92.5582 6.92023C92.4373 6.94047 92.3244 6.9061 92.2364 6.82244L91.15 5.78891C91.1046 5.74567 91.0569 5.70467 91.0084 5.66477C90.4259 5.18676 89.6906 4.92474 88.9309 4.92474C88.7435 4.92474 88.5563 4.93996 88.3718 4.97185L81.1663 6.21676C79.6231 6.48339 78.4976 7.79697 78.4976 9.33261V15.9832C78.4976 16.1444 78.3957 16.2812 78.2391 16.3304C78.0825 16.3795 77.9183 16.3262 77.8228 16.195L75.8164 13.4409C73.602 10.4014 70.1533 9.02135 66.4096 9.02135C65.4233 9.02135 64.4363 9.11644 63.4654 9.28429L52.5939 11.1639C51.0494 11.4309 49.9251 12.7449 49.9251 14.2816V17.7197C49.9251 17.8665 49.8421 17.9921 49.7054 18.0523C49.5687 18.1124 49.4178 18.0896 49.3058 17.9921L47.4645 16.3872C45.269 14.4736 42.4993 13.6554 39.5933 13.6554C38.6271 13.6554 37.6602 13.7459 36.709 13.9101C33.3225 14.4945 30.2245 15.9709 27.7888 18.3673L26.743 19.3962C26.6575 19.4804 26.5468 19.5167 26.4267 19.4999C26.3067 19.483 26.2108 19.4178 26.1528 19.3135L25.4436 18.0385C25.2528 17.6954 24.9975 17.3882 24.6918 17.1372C24.1096 16.6591 23.3742 16.3974 22.6146 16.3974C22.4268 16.3974 22.2387 16.4126 22.0536 16.4446L2.66904 19.7969C1.12579 20.0637 0.000106812 21.3769 0.000106812 22.9127V67.835C0.000106812 68.7701 0.422313 69.6579 1.15339 70.2589C1.73554 70.7374 2.47009 71 3.23 71C3.418 71 3.60589 70.9831 3.79096 70.951L10.7327 69.7507C12.276 69.4838 13.4017 68.1708 13.4017 66.635V50.6698C13.4017 50.492 13.5286 50.343 13.7071 50.3112L14.6149 50.1491C16.6493 49.7859 18.6847 49.4276 20.7119 49.0269C22.0058 48.7711 23.2168 49.7418 23.2168 51.0354V53.2765C23.2168 56.4685 24.1296 59.6016 26.4058 61.9596C28.667 64.3021 31.6978 65.3228 34.9454 65.3228H34.9475C35.9136 65.3228 36.8803 65.2307 37.8313 65.0662C41.6376 64.4078 45.0503 62.6339 47.5719 59.7404L48.84 58.2853C48.9295 58.1827 49.0586 58.1385 49.1937 58.1641C49.3288 58.1898 49.4318 58.2781 49.4756 58.406L50.0973 60.2198C50.2853 60.7683 50.6251 61.2556 51.0777 61.6272C51.6599 62.1052 52.3955 62.3672 53.1551 62.3672C53.3431 62.3672 53.5308 62.3521 53.716 62.3201L60.6578 61.1197C61.9685 60.8931 63.0069 59.8991 63.2658 58.6195L63.82 55.8796C63.8504 55.729 63.9661 55.6181 64.1204 55.5914C64.2746 55.5648 64.4219 55.6303 64.5031 55.7616L65.9799 58.1507C66.562 59.0922 67.613 59.6738 68.7367 59.6738C68.9261 59.6738 69.1156 59.657 69.302 59.6248L76.5074 58.3799C77.415 58.2231 78.2108 57.6927 78.6946 56.9242C79.1605 56.1841 79.2936 55.2858 79.0645 54.4459L77.8623 50.0398C77.8172 49.8747 77.8915 49.7059 78.045 49.6248C78.1986 49.5436 78.3833 49.5755 78.4994 49.7031C81.1998 53.1073 85.1855 56.2642 89.9556 56.1194V56.1194ZM3.22912 67.8354L10.1713 66.635V47.703L19.995 46.0047V39.5873L10.1713 41.2858V28.1299L22.6148 25.9784V19.561L3.22912 22.9127V67.8354V67.8354ZM37.2695 55.7107C34.7863 56.1399 33.1946 54.8556 33.1946 52.1103V28.2762C33.1946 25.5309 34.7863 23.6959 37.2695 23.2665C39.7529 22.8372 41.3446 24.1218 41.3446 26.8671V50.701C41.3446 53.4463 39.7529 55.2813 37.2695 55.7107ZM37.2695 61.9499C43.7643 60.827 48.0938 55.8356 48.0938 49.5342V25.7001C48.0938 19.3987 43.7643 15.9044 37.2695 17.0273C30.7749 18.1501 26.4452 23.1416 26.4452 29.4432V53.277C26.4452 59.5787 30.7749 63.0728 37.2695 61.9499V61.9499ZM60.0965 19.498L63.6982 18.8753C66.3838 18.4111 67.9556 19.6794 67.9556 22.3106V27.5087C67.9556 30.1401 66.3838 31.9521 63.6982 32.4165L60.0965 33.0392V19.498V19.498ZM75.9457 55.2632L70.1169 36.184C73.1294 33.8663 74.8976 30.3517 74.8976 26.18V21.2388C74.8976 14.7572 70.6404 11.2576 64.026 12.4012L53.1541 14.2809V59.2036L60.0965 58.0032V39.4563L63.6982 38.8334L68.7414 56.5087L75.9457 55.2632ZM96.399 6.79804V41.4608C96.399 44.6707 94.9588 46.0743 92.666 46.4707C90.3732 46.8668 88.9314 45.961 88.9314 42.7511V8.08833L81.726 9.33324V43.5474C81.726 49.4636 84.2113 52.8631 89.0355 53.2002C88.87 51.8678 90.4223 51.3141 91.2099 51.6627C90.8803 50.6507 91.5543 49.3109 93.2518 49.4382C92.924 48.6977 93.5025 48.0145 94.2727 48.022C93.9152 46.4951 95.429 45.3981 96.8379 45.9945C97.0768 45.3696 97.8688 45.2126 98.4679 45.4887C98.1299 43.7773 99.9789 42.6793 101.454 43.4612C101.323 42.4327 101.894 42.1231 102.502 41.5288C103.301 40.7464 103.213 40.0137 103.213 39.0643V20.9933C103.213 20.3812 103.708 19.7958 104.314 19.6921H104.314C104.92 19.5885 105.416 20.0043 105.416 20.6164V39.7798C105.416 40.7643 105.288 41.69 106.063 42.1882C107.027 42.8088 107.957 43.4465 107.346 44.8196C108.035 44.6392 108.747 45.037 108.843 45.6284C111.372 45.6463 111.711 47.9357 111.279 49.177L112.622 48.9451V32.0623L116.028 31.4739C123.234 30.229 126.77 25.702 126.77 18.5128V12.6713C126.77 5.48215 123.234 2.17764 116.028 3.42255L104.92 5.33264C106.349 6.51775 107.74 7.84789 108.155 9.74598C108.385 10.7887 108.325 11.939 108.086 13.0854C109.101 14.0452 109.552 15.4982 109.291 17.0399C109.27 17.1699 109.207 17.2936 109.117 17.3956C109.062 17.4585 108.994 17.5145 108.919 17.5582C108.722 17.6696 108.499 17.6811 108.327 17.5904C107.873 17.346 107.266 17.1936 106.571 17.133C106.36 17.5273 106.141 17.902 105.924 18.2378C105.902 18.2708 105.879 18.3023 105.855 18.3296C105.74 18.4605 105.584 18.5501 105.42 18.5769L103.063 18.9648C102.864 18.996 102.677 18.9309 102.563 18.7905C102.346 18.524 102.133 18.2207 101.924 17.8961C101.229 18.1837 100.619 18.5354 100.163 18.9292C99.988 19.0781 99.7663 19.1381 99.5701 19.0913C99.3752 19.0427 99.2376 18.894 99.2017 18.6945C98.9534 17.2362 99.4188 15.633 100.442 14.3373C100.214 13.2689 100.164 12.1369 100.402 11.0157C100.835 8.97868 102.179 7.2606 103.671 5.54749L96.399 6.79804V6.79804ZM104.998 11.379C105.4 10.9209 105.403 10.286 105.004 9.95893C104.607 9.63349 103.959 9.73843 103.557 10.1965C103.155 10.6544 103.153 11.2905 103.55 11.6162C103.949 11.9433 104.597 11.8367 104.998 11.379ZM108.34 16.4213C107.96 16.2873 107.527 16.1947 107.061 16.1408C107.32 15.5763 107.553 14.9795 107.746 14.37C108.144 14.9476 108.354 15.6585 108.34 16.4213V16.4213ZM100.16 17.7632C100.153 17.0036 100.368 16.2227 100.772 15.5134C100.961 16.0604 101.189 16.5814 101.441 17.061C100.974 17.2706 100.542 17.5037 100.16 17.7632V17.7632ZM119.564 20.2069C119.564 23.4166 118.321 24.6587 116.028 25.0547L112.622 25.6432V10.4301L116.028 9.84176C118.321 9.44534 119.564 10.2576 119.564 13.4671V20.2069V20.2069Z" fill="white"/>
</svg>
