<svg width="293" height="293" viewBox="0 0 293 293" fill="none" xmlns="http://www.w3.org/2000/svg">
<path d="M45.836 60.1853C39.9746 70.8338 20.5994 105.133 11.6445 120.952C-17.3931 172.458 27.2373 182.104 39.4486 193.485C51.6598 204.867 44.1452 219.335 53.5384 227.244C61.0531 233.572 71.323 246.599 75.5187 252.322C92.0508 273.774 100.567 281.194 102.759 282.223C134.621 298.119 164.504 288.846 175.463 282.223C193.31 263.897 227.877 260.81 235.016 257.531C242.155 254.251 281.231 218.177 287.243 206.41C293.254 194.643 281.043 158.569 278.225 152.396C275.971 147.457 285.802 118.058 291 103.976C286.642 67.5544 238.21 24.24 214.539 7.13539C159.231 -4.2848 142.649 5.97794 141.271 12.5368C117.375 50.6556 102.008 52.4689 97.311 48.6108C57.2957 37.0362 53.1627 46.8746 45.836 60.1853Z" stroke="black" stroke-width="3"/>
</svg>
