<svg width="381" height="376" viewBox="0 0 381 376" fill="none" xmlns="http://www.w3.org/2000/svg">
<path d="M118.929 79.4318C135.563 48.4033 165.922 53.2775 179.022 59.5931C192.778 63.5437 226.095 70.718 249.321 67.8107C278.355 64.1766 319.341 89.7736 319.837 115.727C320.333 141.68 305.5 165.809 321.601 225.39C337.703 284.971 224.801 318.47 196.796 339.039C189.857 341.329 168.324 337.364 137.709 303.19C130.195 294.896 108.51 279.117 81.8839 282.355C70.5795 281.783 48.1937 269.156 49.0861 223.235C50.2017 165.833 57.5037 114.553 70.6894 108.876C83.8751 103.198 113.405 87.891 118.929 79.4318Z" stroke="#000" stroke-width="3"/>
</svg>
