<svg width="975" height="947" viewBox="0 0 975 947" fill="none" xmlns="http://www.w3.org/2000/svg">
<path d="M540.092 891.588C549.593 899.56 550.835 913.747 542.862 923.248C534.89 932.749 520.703 933.99 511.202 926.017C501.701 918.045 500.46 903.858 508.433 894.358C516.405 884.857 530.592 883.615 540.092 891.588Z" stroke="black" stroke-width="8"/>
<path d="M524.401 12.3512C529.886 16.9533 530.602 25.1428 526 30.6273C521.398 36.1118 513.209 36.8283 507.724 32.2262C502.24 27.6242 501.523 19.4347 506.125 13.9502C510.727 8.46569 518.917 7.7492 524.401 12.3512Z" stroke="black" stroke-width="4.61808"/>
<path d="M277.975 266.46H229.475" stroke="black" stroke-width="8" stroke-linecap="round"/>
<path d="M253.636 290.839V242.339" stroke="black" stroke-width="8" stroke-linecap="round"/>
<path d="M724.64 698.695H676.14" stroke="black" stroke-width="8" stroke-linecap="round"/>
<path d="M700.301 723.074V674.574" stroke="black" stroke-width="8" stroke-linecap="round"/>
<path d="M970.527 495.327H934.516" stroke="black" stroke-width="6.98177" stroke-linecap="round"/>
<path d="M951.898 511.22V478.776" stroke="black" stroke-width="6.13146" stroke-linecap="round"/>
<path d="M40.4097 623.688H4.39939" stroke="black" stroke-width="6.98177" stroke-linecap="round"/>
<path d="M21.7815 639.582V607.138" stroke="black" stroke-width="6.13146" stroke-linecap="round"/>
</svg>
