<svg width="221" height="124" viewBox="0 0 221 124" fill="none" xmlns="http://www.w3.org/2000/svg">
<path fill-rule="evenodd" clip-rule="evenodd" d="M152.871 97.3259C166.034 95.0127 179.181 92.6065 192.343 90.2884C194.966 89.8265 196.878 87.5476 196.878 84.8847V60.762C196.878 60.457 197.088 60.2008 197.388 60.1418L198.903 59.8426C213.431 56.975 220.923 46.6768 220.923 32.1061V21.9743C220.923 9.6175 215.27 0 201.898 0C199.999 0 198.098 0.2022 196.229 0.5302L177.356 3.8428C177.111 3.8857 176.87 3.9437 176.633 4.0191L176.391 4.0964C176.334 4.1146 176.283 4.1235 176.223 4.1258L175.969 4.1358C175.722 4.1455 175.475 4.1738 175.231 4.2165L162.874 6.3829C161.148 6.6853 159.679 7.7892 158.9 9.3562L157.753 11.6599C157.661 11.8464 157.499 11.9664 157.294 12.0015C157.089 12.0366 156.897 11.977 156.747 11.8319L154.901 10.0395C154.824 9.9645 154.743 9.8934 154.66 9.8242C153.67 8.9952 152.421 8.5408 151.13 8.5408C150.811 8.5408 150.493 8.5672 150.18 8.6225L137.935 10.7815C135.312 11.2439 133.399 13.522 133.399 16.1852V27.7191C133.399 27.9986 133.226 28.2359 132.96 28.3212C132.694 28.4064 132.415 28.3139 132.253 28.0864L128.843 23.31C125.08 18.0388 119.219 15.6454 112.857 15.6454C111.181 15.6454 109.503 15.8103 107.853 16.1014L89.3784 19.3611C86.7537 19.8242 84.843 22.103 84.843 24.768V30.7306C84.843 30.9853 84.702 31.2031 84.4697 31.3074C84.2374 31.4117 83.9809 31.3722 83.7906 31.203L80.6615 28.4198C76.9304 25.1011 72.2235 23.682 67.285 23.682C65.643 23.682 64 23.839 62.3834 24.1237C56.6284 25.1373 51.3637 27.6978 47.2244 31.8538L45.4472 33.6382C45.3018 33.7842 45.1137 33.8471 44.9097 33.8179C44.7057 33.7887 44.5428 33.6756 44.4442 33.4947L43.239 31.2835C42.9147 30.6885 42.4809 30.1557 41.9614 29.7204C40.972 28.8913 39.7222 28.4374 38.4314 28.4374C38.1121 28.4374 37.7925 28.4637 37.478 28.5192L4.53571 34.333C1.91311 34.7958 0.000106812 37.0731 0.000106812 39.7367V117.644C0.000106812 119.265 0.717607 120.805 1.96001 121.847C2.94931 122.677 4.19761 123.133 5.48901 123.133C5.80851 123.133 6.12781 123.103 6.44231 123.048L18.2392 120.966C20.8618 120.503 22.7749 118.226 22.7749 115.563V87.8748C22.7749 87.5665 22.9905 87.3081 23.2938 87.2528L24.8366 86.9717C28.2938 86.3418 31.7529 85.7204 35.1978 85.0255C37.3968 84.5819 39.4547 86.2653 39.4547 88.5088V92.3954C39.4547 97.9313 41.0059 103.365 44.8742 107.454C48.7169 111.517 53.8674 113.287 59.3864 113.287H59.3899C61.0317 113.287 62.6745 113.127 64.2907 112.842C70.7591 111.7 76.5587 108.624 80.844 103.605L82.999 101.082C83.151 100.904 83.3704 100.827 83.6001 100.872C83.8297 100.916 84.0046 101.069 84.0791 101.291L85.1356 104.437C85.4551 105.388 86.0325 106.233 86.8017 106.878C87.7912 107.707 89.0412 108.161 90.332 108.161C90.6515 108.161 90.9706 108.135 91.2853 108.079L103.082 105.998C105.31 105.605 107.074 103.881 107.514 101.662L108.456 96.9099C108.508 96.6488 108.704 96.4564 108.967 96.4102C109.229 96.364 109.479 96.4776 109.617 96.7053L112.127 100.849C113.116 102.482 114.902 103.49 116.812 103.49C117.133 103.49 117.455 103.461 117.772 103.405L130.017 101.246C131.56 100.974 132.912 100.054 133.734 98.7216C134.526 97.438 134.752 95.8801 134.363 94.4235L132.32 86.7822C132.243 86.4958 132.369 86.2032 132.63 86.0625C132.891 85.9217 133.205 85.9769 133.402 86.1983C137.992 92.102 144.765 97.577 152.871 97.3259V97.3259ZM5.48751 117.644L17.2851 115.563V82.7296L33.9796 79.7843V68.6548L17.2851 71.6005V48.7847L38.4316 45.0534V33.924L5.48751 39.7367V117.644V117.644ZM63.3359 96.6171C59.116 97.3614 56.411 95.134 56.411 90.3729V49.0384C56.411 44.2773 59.116 41.0949 63.3359 40.3502C67.5562 39.6058 70.2613 41.8336 70.2613 46.5947V87.9289C70.2613 92.6899 67.5562 95.8724 63.3359 96.6171ZM63.3359 107.438C74.3732 105.49 81.7308 96.8337 81.7308 85.9053V44.5708C81.7308 33.6425 74.3732 27.5824 63.3359 29.5298C52.299 31.4771 44.9411 40.1336 44.9411 51.0623V92.3964C44.9411 103.325 52.299 109.385 63.3359 107.438V107.438ZM102.128 33.8146L108.249 32.7348C112.813 31.9297 115.484 34.1293 115.484 38.6925V47.7073C115.484 52.2709 112.813 55.4133 108.249 56.2187L102.128 57.2986V33.8146V33.8146ZM129.063 95.841L119.157 62.7525C124.277 58.733 127.281 52.6378 127.281 45.403V36.8337C127.281 25.5928 120.047 19.5236 108.806 21.5069L90.3304 24.7669V102.675L102.128 100.593V68.4277L108.249 67.3474L116.82 98.001L129.063 95.841ZM163.821 11.7896V71.9039C163.821 77.4708 161.374 79.9049 157.477 80.5925C153.581 81.2793 151.131 79.7084 151.131 74.1416V14.0273L138.886 16.1863V75.5227C138.886 85.7829 143.109 91.6785 151.307 92.2631C151.026 89.9524 153.664 88.9921 155.003 89.5968C154.443 87.8417 155.588 85.518 158.473 85.7388C157.916 84.4547 158.899 83.2697 160.208 83.2828C159.6 80.6348 162.173 78.7323 164.567 79.7666C164.973 78.6829 166.319 78.4106 167.337 78.8893C166.763 75.9214 169.905 74.0171 172.412 75.3731C172.188 73.5895 173.16 73.0526 174.192 72.0218C175.551 70.665 175.4 69.3943 175.4 67.7478V36.4079C175.4 35.3464 176.242 34.3311 177.272 34.1512H177.273C178.302 33.9716 179.145 34.6927 179.145 35.7542V68.9886C179.145 70.696 178.928 72.3015 180.243 73.1655C181.882 74.2418 183.462 75.3477 182.424 77.729C183.595 77.4161 184.805 78.1061 184.969 79.1316C189.266 79.1627 189.842 83.1332 189.109 85.2858L191.391 84.8837V55.6045L197.179 54.584C209.425 52.425 215.434 44.574 215.434 32.1061V21.9754C215.434 9.5075 209.425 3.7766 197.179 5.9356L178.302 9.2482C180.731 11.3035 183.095 13.6103 183.799 16.9021C184.19 18.7104 184.088 20.7054 183.682 22.6936C185.408 24.358 186.174 26.8779 185.73 29.5516C185.694 29.7771 185.587 29.9916 185.435 30.1686C185.341 30.2777 185.225 30.3747 185.098 30.4505C184.763 30.6438 184.384 30.6636 184.091 30.5063C183.32 30.0826 182.289 29.8183 181.107 29.7132C180.75 30.3969 180.376 31.0467 180.007 31.6291C179.971 31.6863 179.932 31.741 179.891 31.7883C179.696 32.0154 179.431 32.1707 179.152 32.2172L175.147 32.89C174.808 32.944 174.489 32.8311 174.296 32.5876C173.928 32.1255 173.565 31.5995 173.21 31.0365C172.029 31.5353 170.993 32.1453 170.217 32.8282C169.92 33.0865 169.543 33.1905 169.21 33.1094C168.879 33.0251 168.645 32.7672 168.584 32.4211C168.162 29.8921 168.953 27.1118 170.691 24.8646C170.305 23.0118 170.219 21.0486 170.624 19.1041C171.359 15.5714 173.644 12.5918 176.18 9.6208L163.821 11.7896V11.7896ZM178.435 19.7342C179.118 18.9397 179.123 17.8387 178.445 17.2714C177.77 16.707 176.668 16.889 175.985 17.6835C175.302 18.4776 175.299 19.5807 175.974 20.1455C176.652 20.7128 177.752 20.5279 178.435 19.7342ZM184.114 28.4788C183.468 28.2464 182.733 28.0858 181.941 27.9924C182.38 27.0134 182.776 25.9784 183.104 24.9214C183.781 25.923 184.137 27.1559 184.114 28.4788V28.4788ZM170.212 30.8061C170.2 29.4888 170.566 28.1345 171.253 26.9044C171.573 27.853 171.962 28.7565 172.39 29.5883C171.596 29.9517 170.862 30.356 170.212 30.8061V30.8061ZM203.188 35.044C203.188 40.6105 201.075 42.7646 197.179 43.4514L191.391 44.472V18.0885L197.179 17.0682C201.075 16.3807 203.188 17.7893 203.188 23.3555V35.044V35.044Z" fill="white"/>
</svg>
